Coordinates
version=1
nRows=7
nColumns=42
inDegrees=yes

Units are S.I. units (second, meters, Newtons, ...)
If the header above contains a line with 'inDegrees', this indicates whether rotational values are in degrees (yes) or radians (no).

endheader
time	pelvis_tilt	pelvis_list	pelvis_rotation	pelvis_tx	pelvis_ty	pelvis_tz	hip_flexion_r	hip_adduction_r	hip_rotation_r	knee_angle_r	knee_adduction_r	knee_angle_r_beta	ankle_angle_r	subtalar_angle_r	mtp_angle_r	hip_flexion_l	hip_adduction_l	hip_rotation_l	knee_angle_l	knee_adduction_l	knee_angle_l_beta	ankle_angle_l	subtalar_angle_l	mtp_angle_l	lumbar_extension	lumbar_bending	lumbar_rotation	arm_flex_r	arm_add_r	arm_rot_r	elbow_flex_r	pro_sup_r	wrist_flex_r	wrist_dev_r	arm_flex_l	arm_add_l	arm_rot_l	elbow_flex_l	pro_sup_l	wrist_flex_l	wrist_dev_l
      0.77000000	      5.76387965	     -1.58078685	    -11.21687458	     -0.83309427	      0.94704325	      0.28890531	    -23.00654198	      0.93272809	     -0.17304505	      2.75107611	      2.34079655	      0.04801534	     25.96875918	     16.05231428	     -7.63409699	     16.88739710	     -6.18558100	    -26.71439330	      1.20450275	      3.84612408	      0.02102254	      9.79028780	     20.20479303	     -7.63409699	    -15.29114990	      1.44647738	      8.12870431	      4.41877302	    -23.91678344	     19.31766465	     48.38747981	     90.00000001	      0.00000000	      0.00000000	    -21.27185008	     -7.48486005	      1.70641730	     39.92276863	     90.00000001	      0.00000000	      0.00000000
      0.78000000	      5.81065170	     -1.76169469	    -11.69299606	     -0.81843637	      0.94397201	      0.28944189	    -23.91304497	      0.78117190	      0.62242184	      3.06614818	      2.28412009	      0.05351438	     26.33501056	     15.56602419	     -7.62508102	     17.44091936	     -6.66499532	    -29.35265869	      1.30347024	      4.12798824	      0.02274985	     10.32238129	     24.67562743	     -7.62508102	    -15.31747825	      1.52654010	      8.57605807	      4.61541009	    -24.14786864	     19.55386114	     48.28328687	     90.00000001	      0.00000000	      0.00000000	    -21.72880618	     -7.17965018	      1.04469929	     40.16380092	     90.00000001	      0.00000000	      0.00000000
      0.79000000	      5.68269309	     -1.83263190	    -11.82155558	     -0.80365185	      0.94083127	      0.28966640	    -24.55630251	      0.65543507	      0.63635931	      3.52981172	      2.26332039	      0.06160684	     26.34799268	     15.52895013	     -7.62449225	     18.11409801	     -6.78664107	    -29.24495367	      1.40620769	      4.15931626	      0.02454295	     10.27978998	     24.61812407	     -7.62449225	    -15.11401784	      1.57841304	      8.70678494	      4.63815448	    -24.24641603	     19.50241630	     48.24710244	     90.00000001	      0.00000000	      0.00000000	    -22.06174467	     -7.14761519	      1.02546741	     40.13463040	     90.00000001	      0.00000000	      0.00000000
      0.80000000	      5.98035709	     -1.60884448	    -12.47377964	     -0.78851200	      0.93852348	      0.29012529	    -25.57445141	     -0.19827941	      1.20860707	      4.01194419	      2.42173520	      0.07002164	     26.75906715	     15.41668661	     -7.62103349	     17.95697648	     -6.52850797	    -29.22224445	      1.27005526	      4.08959449	      0.02216665	     10.05466574	     24.87805375	     -7.62103349	    -15.30025318	      1.13616672	      9.19299769	      4.72787391	    -24.27142054	     19.51668878	     47.96399030	     90.00000001	      0.00000000	      0.00000000	    -22.44549883	     -6.94481956	      0.47703830	     40.48761073	     90.00000001	      0.00000000	      0.00000000
      0.81000000	      6.12417937	     -1.35758717	    -12.92575092	     -0.77317437	      0.93626662	      0.29027599	    -26.37445287	     -0.99926094	      1.47305789	      4.60424150	      2.58502320	      0.08035917	     26.70530580	     15.39921890	     -7.61878355	     18.08423095	     -6.17599176	    -28.63268382	      1.65071815	      3.78176127	      0.02881047	      9.98518108	     24.47857135	     -7.61878355	    -15.29403206	      0.74374363	      9.49239826	      4.69397151	    -24.26621776	     19.43563438	     47.68008202	     90.00000001	      0.00000000	      0.00000000	    -22.71109524	     -6.85630062	      0.23365958	     40.57989290	     90.00000001	      0.00000000	      0.00000000
      0.82000000	      6.39481539	     -0.87708053	    -13.29113841	     -0.75751445	      0.93443059	      0.29023444	    -27.23915961	     -2.08801762	      1.43055069	      5.25685720	      2.83190954	      0.09174947	     26.46086588	     15.45252638	     -7.60989720	     17.96457357	     -5.43422704	    -27.05431046	      2.05894934	      3.43222908	      0.03593545	      9.28738292	     22.12870123	     -7.60989720	    -15.35579976	      0.08245804	      9.64926126	      4.53424648	    -24.20925028	     19.31124562	     47.47817827	     90.00000001	      0.00000000	      0.00000000	    -22.88485815	     -6.81062523	     -0.15356136	     40.58652413	     90.00000001	      0.00000000	      0.00000000
      0.83000000	      6.54890673	     -0.36184728	    -13.66326783	     -0.74173056	      0.93279578	      0.29017670	    -27.83876658	     -3.19861278	      1.22391098	      6.16537208	      3.07037142	      0.10760604	     26.13650354	     15.68207741	     -7.60132741	     18.04081767	     -4.75567036	    -25.63442139	      3.00634494	      3.12488415	      0.05247062	      8.64836982	     20.02866818	     -7.60132741	    -15.27385575	     -0.59541371	      9.83301721	      4.26722176	    -24.07905521	     19.03873728	     47.17507108	     90.00000001	      0.00000000	      0.00000000	    -22.98406233	     -6.83373101	     -0.33026876	     40.53251713	     90.00000001	      0.00000000	      0.00000000
